<svg width="256" height="256" viewBox="0 0 256 256" fill="none" xmlns="http://www.w3.org/2000/svg">
<rect width="256" height="256" rx="128" fill="#70B343"/>
<path d="M29.5909 189.364V73.4091H59.4545V84.1818H42.5909V178.591H59.4545V189.364H29.5909ZM81.4659 170.864C78.9811 170.864 76.8447 169.985 75.0568 168.227C73.2689 166.439 72.375 164.288 72.375 161.773C72.375 159.288 73.2689 157.167 75.0568 155.409C76.8447 153.621 78.9811 152.727 81.4659 152.727C83.9508 152.727 86.0871 153.621 87.875 155.409C89.6629 157.167 90.5568 159.288 90.5568 161.773C90.5568 163.439 90.1326 164.97 89.2841 166.364C88.4659 167.727 87.375 168.818 86.0114 169.636C84.6477 170.455 83.1326 170.864 81.4659 170.864ZM111.5 143.227V142.364C111.561 136.727 112.121 132.242 113.182 128.909C114.273 125.576 115.818 122.879 117.818 120.818C119.818 118.758 122.227 116.879 125.045 115.182C126.864 114.03 128.5 112.742 129.955 111.318C131.409 109.894 132.561 108.258 133.409 106.409C134.258 104.561 134.682 102.515 134.682 100.273C134.682 97.5758 134.045 95.2424 132.773 93.2727C131.5 91.303 129.803 89.7879 127.682 88.7273C125.591 87.6364 123.258 87.0909 120.682 87.0909C118.348 87.0909 116.121 87.5758 114 88.5455C111.879 89.5152 110.121 91.0303 108.727 93.0909C107.333 95.1212 106.53 97.7424 106.318 100.955H92.5C92.7121 95.5 94.0909 90.8939 96.6364 87.1364C99.1818 83.3485 102.545 80.4848 106.727 78.5454C110.939 76.6061 115.591 75.6364 120.682 75.6364C126.258 75.6364 131.136 76.6818 135.318 78.7727C139.5 80.8333 142.742 83.7273 145.045 87.4545C147.379 91.1515 148.545 95.4697 148.545 100.409C148.545 103.803 148.015 106.864 146.955 109.591C145.894 112.288 144.379 114.697 142.409 116.818C140.47 118.939 138.136 120.818 135.409 122.455C132.833 124.061 130.742 125.727 129.136 127.455C127.561 129.182 126.409 131.227 125.682 133.591C124.955 135.955 124.561 138.879 124.5 142.364V143.227H111.5ZM118.364 170.864C115.879 170.864 113.742 169.985 111.955 168.227C110.167 166.439 109.273 164.288 109.273 161.773C109.273 159.288 110.167 157.167 111.955 155.409C113.742 153.621 115.879 152.727 118.364 152.727C120.818 152.727 122.939 153.621 124.727 155.409C126.545 157.167 127.455 159.288 127.455 161.773C127.455 163.439 127.03 164.97 126.182 166.364C125.364 167.727 124.273 168.818 122.909 169.636C121.545 170.455 120.03 170.864 118.364 170.864ZM181.568 157.273L180.886 162.227C180.432 165.864 179.659 169.652 178.568 173.591C177.508 177.561 176.402 181.242 175.25 184.636C174.129 188.03 173.205 190.727 172.477 192.727H162.841C163.235 190.848 163.78 188.303 164.477 185.091C165.174 181.909 165.856 178.348 166.523 174.409C167.189 170.47 167.689 166.455 168.023 162.364L168.477 157.273H181.568ZM174.477 120.045C171.992 120.045 169.856 119.152 168.068 117.364C166.28 115.576 165.386 113.439 165.386 110.955C165.386 108.47 166.28 106.348 168.068 104.591C169.856 102.803 171.992 101.909 174.477 101.909C176.962 101.909 179.098 102.803 180.886 104.591C182.674 106.348 183.568 108.47 183.568 110.955C183.568 112.621 183.144 114.152 182.295 115.545C181.477 116.909 180.386 118 179.023 118.818C177.659 119.636 176.144 120.045 174.477 120.045ZM225.398 73.4091V189.364H195.534V178.591H212.398V84.1818H195.534V73.4091H225.398Z" fill="white"/>
</svg>
